<svg width="570" height="471" viewBox="0 0 570 471" fill="none" xmlns="http://www.w3.org/2000/svg">
<rect x="131.385" y="45.0855" width="353" height="300" transform="rotate(24.9891 131.385 45.0855)" fill="#89D5F6" stroke="black" stroke-width="7"/>
<path d="M412.589 125.358C521.335 181.742 492.004 340.341 463.745 412.592L449.842 407.105C480.791 331.784 476.817 257.32 470.961 229.503C467.393 201.059 440.859 139.423 363.267 120.432C285.674 101.441 225.536 146.93 205.165 172.048L195.879 164.557C222.805 127.998 303.843 68.9751 412.589 125.358Z" fill="white" stroke="black" stroke-width="4"/>
<path d="M404.784 137.267C507.341 191.561 475.646 342.004 450.106 407.318L438.816 402.056C466.814 333.977 464.961 258.49 459.378 233.231C455.899 207.419 431.04 151.358 359.439 133.614C287.838 115.871 232.751 156.705 214.158 179.34L205.553 172.485C230.108 139.522 305.582 84.7492 404.784 137.267Z" fill="white" stroke="black" stroke-width="4"/>
<path d="M397.74 147.332C495.377 197.309 462.227 344.98 439.486 403.153L427.874 397.741C452.837 337.118 452.462 258.827 447.112 236.181C443.681 213.061 420.399 162.68 354.718 146.123C289.037 129.566 239.028 165.561 222.233 185.628L214.295 179.414C236.444 150.167 305.244 99.9869 397.74 147.332Z" fill="white" stroke="black" stroke-width="4"/>
<path d="M97.0191 153.141L275.003 236.095C304.506 214.563 251.792 201.125 221.748 197.098C233.85 193.026 253.025 182.536 232.905 173.159C217.665 166.056 208.084 169.423 203.197 173.91C210.485 162.902 215.279 145.108 191.518 137.33C164.275 128.414 153.092 145.673 150.905 155.417C131.074 127.903 106.718 142.435 97.0191 153.141Z" fill="white" stroke="black" stroke-width="4"/>
<path d="M340.35 233.023C328.465 226.581 328 216.364 329.254 212.061L334.401 191.339C330.712 194.413 324.761 210.813 324.221 211.971C323.681 213.129 320.383 226.254 313.836 225.177C308.599 224.315 306.135 220.93 305.558 219.345C302.128 201.054 327.161 162.305 340.107 145.218L415.16 180.198C409.633 212.022 388.301 255.372 379.532 256.642C370.763 257.912 366.56 250.596 368.611 246.195L383.186 214.922C380.795 218.037 374.999 225.712 370.951 231.495C365.89 238.723 355.207 241.075 340.35 233.023Z" fill="white" stroke="black" stroke-width="3" stroke-linejoin="bevel"/>
<circle cx="344.388" cy="212.558" r="7.31721" transform="rotate(24.9891 344.388 212.558)" fill="white" stroke="black" stroke-width="3"/>
<circle cx="344.223" cy="212.109" r="1.69562" transform="rotate(24.9891 344.223 212.109)" fill="black"/>
<circle cx="360.372" cy="220.008" r="7.31721" transform="rotate(24.9891 360.372 220.008)" fill="white" stroke="black" stroke-width="3"/>
<circle cx="360.207" cy="219.559" r="1.69562" transform="rotate(24.9891 360.207 219.559)" fill="black"/>
<path d="M374.918 201.2L349.437 189.324L354.995 177.399L380.532 189.154L374.918 201.2Z" fill="black" stroke="black" stroke-width="3"/>
<path d="M373.409 171.171C363.216 166.42 357.308 172.442 355.628 176.047C356.703 179.386 360.353 185.872 366.348 185.109C368.525 187.699 374.468 192.007 380.829 188.524C382.602 184.719 383.601 175.921 373.409 171.171Z" fill="white" stroke="black" stroke-width="3"/>
<circle cx="314.031" cy="215.68" r="3.60028" transform="rotate(24.9891 314.031 215.68)" fill="white" stroke="black" stroke-width="2"/>
<circle cx="376.886" cy="247.796" r="3.60028" transform="rotate(24.9891 376.886 247.796)" fill="white" stroke="black" stroke-width="2"/>
<path d="M369.4 194.894L367.755 198.424L370.998 199.936L372.643 196.406C372.814 196.038 372.833 195.151 371.536 194.547C370.238 193.942 369.571 194.527 369.4 194.894Z" fill="white" stroke="black" stroke-width="2"/>
<path d="M365.496 194.794L364.509 196.912L367.752 198.423L368.739 196.305C368.842 196.085 368.723 195.492 367.426 194.888C366.129 194.283 365.599 194.573 365.496 194.794Z" fill="white" stroke="black" stroke-width="2"/>
<path d="M355.665 188.063L353.855 191.946L357.098 193.457L358.908 189.575C359.097 189.17 359.149 188.21 357.852 187.605C356.555 187.001 355.853 187.659 355.665 188.063Z" fill="white" stroke="black" stroke-width="2"/>
<circle cx="201.892" cy="246.051" r="4.41912" transform="rotate(24.9891 201.892 246.051)" fill="white" stroke="black" stroke-width="3"/>
<circle cx="202.233" cy="245.926" r="1.02941" transform="rotate(24.9891 202.233 245.926)" fill="black"/>
<circle cx="210.536" cy="250.649" r="4.41912" transform="rotate(24.9891 210.536 250.649)" fill="white" stroke="black" stroke-width="3"/>
<circle cx="210.881" cy="250.524" r="1.02941" transform="rotate(24.9891 210.881 250.524)" fill="black"/>
<path d="M229.33 272.468C224.923 262.918 209.701 255.085 202.641 252.362C200.441 256.069 196.272 263.591 197.205 264.026C210.045 272.054 223.972 272.999 229.33 272.468Z" fill="white" stroke="black" stroke-width="3"/>
<path d="M171.348 232.384C185.366 233.012 195.383 241.126 197.94 244.778C212.237 262.231 201.304 287.516 171.181 272.341C141.059 257.166 153.826 231.6 171.348 232.384Z" fill="white" stroke="black" stroke-width="3"/>
<path d="M203.952 262.343C201.963 263.971 196.983 266.818 192.977 265.178C187.97 263.128 191.061 258.323 193.922 257.668" stroke="black" stroke-width="3"/>
<path d="M172.349 272.884L151.149 318.37L144.309 320.861L167.684 270.71" stroke="black" stroke-width="3"/>
<path d="M163.01 225.296L167.285 235.885L177.993 238.231L184.699 223.842L163.01 225.296Z" fill="white" stroke="black" stroke-width="3"/>
<circle cx="171.758" cy="243.081" r="2.05882" transform="rotate(24.9891 171.758 243.081)" fill="black"/>
<path d="M268.104 261.146C283.217 264.841 281.874 274.879 280.271 279.671C276.564 302.772 261.172 297.207 253.939 291.537C253.801 302.654 251.72 330.381 244.506 352.35C235.489 379.811 218.782 393.342 194.366 392.308C174.833 391.48 158.012 370.453 152.043 360.042C139.683 360.865 117.055 351.259 111.877 348.846C106.698 346.432 92.6221 336.736 88.8653 330.596C85.8598 325.684 77.3902 326.816 68.6998 326.527L62.1632 325.675C56.4119 324.04 46.9949 320.487 55.3369 319.359C63.6789 318.231 77.1333 313.842 82.8178 311.789C87.5999 305.135 103.22 291.954 127.441 292.459C157.719 293.09 190.878 322.025 179.834 345.72C168.791 369.415 202.216 394.399 224.111 366.356C246.005 338.314 242.106 284.536 243.198 278.067C245.134 266.6 251.128 256.996 268.104 261.146Z" fill="white" stroke="black" stroke-width="4"/>
<circle cx="262.71" cy="273.441" r="9" transform="rotate(24.9891 262.71 273.441)" fill="white" stroke="black" stroke-width="4"/>
<circle cx="262.468" cy="272.776" r="1.5" transform="rotate(24.9891 262.468 272.776)" fill="black"/>
<circle cx="277.274" cy="282.435" r="6" transform="rotate(24.9891 277.274 282.435)" fill="white" stroke="black" stroke-width="4"/>
<circle cx="277.273" cy="282.435" r="1" transform="rotate(24.9891 277.273 282.435)" fill="black"/>
<path d="M265.239 303.48C265.133 299.234 261.013 292.974 258.966 290.374C258.659 282.086 269.252 286.015 274.587 289.016C276.715 292.373 280.18 301.064 277.017 308.969C273.063 318.85 258.292 326.775 258.284 323.995C258.277 321.214 265.372 308.787 265.239 303.48Z" fill="black" stroke="black" stroke-width="4"/>
<path d="M163.548 344.171C150.641 348.869 119.94 350.354 100.39 318.714" stroke="black" stroke-width="4"/>
<path d="M119.449 351.2L111 366" stroke="black" stroke-width="4"/>
<path d="M123.984 353.312L118 368" stroke="black" stroke-width="4"/>
<circle cx="135.387" cy="104.127" r="13.8079" transform="rotate(36.5649 135.387 104.127)" fill="white" stroke="black" stroke-width="3"/>
<circle cx="144.067" cy="107.376" r="2.44927" transform="rotate(36.5649 144.067 107.376)" fill="black"/>
<circle cx="161.043" cy="116.756" r="13.8079" transform="rotate(36.5649 161.043 116.756)" fill="white" stroke="black" stroke-width="3"/>
<circle cx="168.742" cy="119.275" r="2.44927" transform="rotate(36.5649 168.742 119.275)" fill="black"/>
<path d="M175.666 118.567L203.763 101.481C205.758 99.8404 211.025 97.4212 215.614 101.975C220.203 106.528 215.602 111.359 212.793 113.067" stroke="black" stroke-width="3"/>
<path d="M127.127 92.7557L154.865 75.5029C156.838 73.8517 162.03 71.398 166.499 75.8955C170.968 80.3929 166.41 85.2433 163.636 86.9686" stroke="black" stroke-width="3"/>
<path d="M20.3789 322.677L89.2941 174.815C90.6731 170.315 95.7618 162.016 105.084 164.819C114.407 167.621 111.095 176.833 108.273 181.089L131.873 192.088C133.908 187.466 140.013 179.555 148.154 184.892C156.295 190.229 153.869 198.055 151.638 201.3L81.7383 351.275L20.3789 322.677Z" fill="white" stroke="black" stroke-width="3"/>
<ellipse cx="96.9456" cy="233.895" rx="16.3919" ry="9.83517" transform="rotate(35.9607 96.9456 233.895)" fill="black"/>
<circle cx="97.323" cy="203.677" r="9.84361" transform="rotate(42.4363 97.323 203.677)" fill="white" stroke="black" stroke-width="3"/>
<path d="M105.474 198.324C101.544 199.311 93.4912 203.483 92.7171 212.277C99.0014 214.064 110.351 213.775 105.474 198.324Z" fill="black" stroke="black" stroke-width="3"/>
<circle cx="123.673" cy="221.835" r="9.84361" transform="rotate(-160.279 123.673 221.835)" fill="white" stroke="black" stroke-width="3"/>
<path d="M118.217 229.922C121.461 227.494 127.278 220.535 124.596 212.125C118.109 212.903 107.752 217.553 118.217 229.922Z" fill="black" stroke="black" stroke-width="3"/>
<path d="M96.1472 252.075C100.065 253.533 109.572 255.464 116.264 251.521" stroke="black" stroke-width="3"/>
<path d="M208.848 193.723C212.633 193.096 220.385 191.929 221.111 192.267L222.889 183.718L207.906 183.906L208.848 193.723Z" fill="white" stroke="black"/>
<path d="M156.168 262.95C146.121 275.038 128.524 271.764 120.981 268.616L116.123 279.039C151.622 292.826 166.081 273.638 170.033 262.793C173.985 251.947 179.829 220.469 187.737 207.054C194.063 196.321 204.887 193.533 209.509 193.481L208.748 182.093C163.775 189.818 168.727 247.841 156.168 262.95Z" fill="white" stroke="black" stroke-width="3"/>
<rect x="209.293" y="178.971" width="4.95098" height="9.97261" rx="2.47549" transform="rotate(-2.25929 209.293 178.971)" fill="white" stroke="black"/>
<rect x="214.187" y="177.941" width="4.95098" height="9.97261" rx="2.47549" transform="rotate(-2.25929 214.187 177.941)" fill="white" stroke="black"/>
<rect x="219.562" y="178.241" width="4.95098" height="9.97261" rx="2.47549" transform="rotate(-2.25929 219.562 178.241)" fill="white" stroke="black"/>
<rect x="229.402" y="186.959" width="4.95098" height="9.97261" rx="2.47549" transform="rotate(84.5027 229.402 186.959)" fill="white" stroke="black"/>
<path d="M346.443 269.185C355.802 267.682 358.66 272.435 359.197 274.78C365.13 289.764 321.855 337.671 316.004 335.992C310.154 334.312 307.438 331.303 307.378 326.036C307.278 317.262 334.745 271.064 346.443 269.185Z" fill="white" stroke="black" stroke-width="3"/>
<path d="M355.236 269.792L349.792 277.728C338.719 293.746 316.519 325.898 316.305 326.357C316.037 326.931 310.688 333.165 319.064 339.163C325.764 343.962 330.852 338.839 332.558 335.678L369.674 280.012C371.164 277.565 373.456 273.396 366.801 268.2C361.477 264.043 356.873 267.529 355.236 269.792Z" fill="white" stroke="black" stroke-width="3"/>
<circle cx="347.846" cy="284.152" r="5.7779" transform="rotate(24.9891 347.846 284.152)" fill="white" stroke="black" stroke-width="3"/>
<path d="M291.013 364.143L295.145 370.258C297.727 371.461 299.82 365.222 298.755 362.514L296.402 359.323C295.248 358.553 293.882 358.288 292.445 359.573C290.648 361.18 290.841 363.015 291.013 364.143Z" fill="black" stroke="black" stroke-width="3"/>
<path d="M299.185 366.823C298.852 368.124 298.221 369.147 297.549 369.765C296.864 370.394 296.299 370.482 295.95 370.393C295.601 370.304 295.148 369.955 294.85 369.074C294.557 368.209 294.496 367.009 294.829 365.708C295.162 364.406 295.793 363.384 296.465 362.766C297.15 362.136 297.715 362.048 298.064 362.137C298.413 362.227 298.866 362.576 299.164 363.457C299.456 364.322 299.518 365.522 299.185 366.823Z" fill="black" stroke="black" stroke-width="3"/>
<path d="M333.38 367.829L337.512 373.944C340.094 375.147 342.187 368.908 341.122 366.2L338.769 363.009C337.615 362.238 336.249 361.974 334.812 363.259C333.016 364.866 333.208 366.701 333.38 367.829Z" fill="black" stroke="black" stroke-width="3"/>
<path d="M341.552 370.509C341.219 371.81 340.589 372.832 339.916 373.451C339.231 374.08 338.666 374.168 338.317 374.079C337.968 373.99 337.515 373.641 337.217 372.76C336.925 371.895 336.863 370.695 337.196 369.394C337.529 368.092 338.16 367.07 338.832 366.452C339.517 365.822 340.082 365.734 340.431 365.823C340.78 365.913 341.233 366.262 341.531 367.143C341.824 368.008 341.885 369.207 341.552 370.509Z" fill="black" stroke="black" stroke-width="3"/>
<path d="M275.787 340.638L345.564 345.23C354.506 345.818 357.97 348.823 358.584 350.251C365.686 361.381 358.12 364.232 353.449 364.266L286.941 360.15C282.053 359.152 271.776 355.386 269.769 348.306C267.762 341.226 272.945 340.244 275.787 340.638Z" fill="white" stroke="black" stroke-width="3"/>
<circle cx="348.269" cy="283.999" r="1.26572" transform="rotate(24.9891 348.269 283.999)" fill="black"/>
<path d="M327.399 333.272C324.404 339.696 325.976 343.315 327.136 344.321C334.538 350.913 341.187 345.633 346.996 340.66C352.805 335.687 369.06 309.05 371.6 303.601C374.14 298.152 377.557 288.573 375.012 283.546C372.467 278.52 368.051 277.509 363.579 279.614C359.107 281.719 331.142 325.241 327.399 333.272Z" fill="white" stroke="black" stroke-width="3"/>
<circle cx="358.784" cy="290.646" r="5.7779" transform="rotate(24.9891 358.784 290.646)" fill="white" stroke="black" stroke-width="3"/>
<circle cx="359.206" cy="290.493" r="1.26572" transform="rotate(24.9891 359.206 290.493)" fill="black"/>
<path d="M324.147 292.307C313.574 290.522 293.257 282.03 296.566 262.346" stroke="black" stroke-width="3"/>
<path d="M355.813 311.255C355.864 325.127 349.847 354.767 325.366 362.348" stroke="black" stroke-width="3"/>
<path d="M353.132 301.278C354.91 302.456 359.388 304.333 363.073 302.42" stroke="black" stroke-width="3"/>
<path d="M315.585 336.145C311.569 332.527 301.816 325.538 294.935 326.52C286.333 327.748 286.224 339.217 298.921 347.928L289.42 347.34" stroke="black" stroke-width="3"/>
<path d="M321.454 340.626C316.463 341.83 312.364 346.923 315.84 352.672C320.185 359.858 334.539 360.577 346.323 353.303L353.665 357.811" stroke="black" stroke-width="3"/>
<path d="M275.666 366.375L274.583 379.605L274.508 380.521L275.155 381.175L284.492 390.609L271.263 389.525L270.346 389.45L269.692 390.097L260.258 399.435L261.342 386.205L261.417 385.289L260.77 384.635L251.433 375.201L264.662 376.285L265.579 376.36L266.232 375.713L275.666 366.375Z" fill="black" stroke="black" stroke-width="4"/>
<path d="M310.178 407.608L309.509 415.779L309.434 416.696L310.08 417.349L315.848 423.177L307.676 422.507L306.76 422.432L306.106 423.079L300.279 428.847L300.948 420.675L301.023 419.759L300.377 419.105L294.609 413.278L302.781 413.947L303.697 414.022L304.351 413.375L310.178 407.608Z" fill="black" stroke="black" stroke-width="4"/>
</svg>
