<svg width="364" height="322" viewBox="0 0 364 322" fill="none" xmlns="http://www.w3.org/2000/svg">
<path d="M51 68.0007L107.5 163.501L151.5 92.5007L51 68.0007Z" fill="#F33829" stroke="black" stroke-width="7"/>
<g filter="url(#filter0_d)">
<path d="M227.5 239C208.834 277.166 145.601 333.399 42 252.999" stroke="#F33829" stroke-width="15"/>
</g>
<path d="M314.84 9.00146L231.487 82.2459L309.42 112.303L314.84 9.00146Z" fill="#F33829" stroke="black" stroke-width="7"/>
<circle cx="219.002" cy="176.755" r="122.5" transform="rotate(-9.09536 219.002 176.755)" fill="#F33829" stroke="black" stroke-width="7"/>
<circle cx="178.423" cy="150.115" r="48.3965" transform="rotate(-25.9097 178.423 150.115)" fill="white" stroke="black" stroke-width="7"/>
<circle cx="178.63" cy="152.63" r="6.45742" transform="rotate(-25.9097 178.63 152.63)" fill="black"/>
<circle cx="245.134" cy="136.134" r="48.8296" transform="rotate(-24.0954 245.134 136.134)" fill="white" stroke="black" stroke-width="7"/>
<circle cx="239.63" cy="138.63" r="6.45742" transform="rotate(-25.9097 239.63 138.63)" fill="black"/>
<path d="M55.5 237.5L28 270.5L6.5 224L55.5 237.5Z" fill="#F33829" stroke="black" stroke-width="7"/>
<path d="M186.5 243C240.667 238.5 341.7 215.3 312.5 158.5C308.833 181 278.5 229.4 186.5 243Z" fill="white" stroke="black" stroke-width="7"/>
<path d="M243.5 263C235.833 255.333 220.1 239.5 218.5 237.5L243.5 229.5V263Z" fill="white" stroke="black" stroke-width="4"/>
<path d="M326.838 201.224C316.14 199.461 294.128 195.763 291.662 195.07L307.317 174L326.838 201.224Z" fill="white" stroke="black" stroke-width="4"/>
<defs>
<filter id="filter0_d" x="33.4023" y="235.705" width="204.836" height="73.7664" filterUnits="userSpaceOnUse" color-interpolation-filters="sRGB">
<feFlood flood-opacity="0" result="BackgroundImageFix"/>
<feColorMatrix in="SourceAlpha" type="matrix" values="0 0 0 0 0 0 0 0 0 0 0 0 0 0 0 0 0 0 127 0"/>
<feOffset dy="4"/>
<feGaussianBlur stdDeviation="2"/>
<feColorMatrix type="matrix" values="0 0 0 0 0 0 0 0 0 0 0 0 0 0 0 0 0 0 0.25 0"/>
<feBlend mode="normal" in2="BackgroundImageFix" result="effect1_dropShadow"/>
<feBlend mode="normal" in="SourceGraphic" in2="effect1_dropShadow" result="shape"/>
</filter>
</defs>
</svg>
