<svg width="130" height="129" viewBox="0 0 130 129" fill="none" xmlns="http://www.w3.org/2000/svg">
<g clip-path="url(#clip0)">
<path d="M87.878 2.01156L5.75539 34.3629C2.94328 35.4707 1.55779 38.6487 2.6674 41.4654L35.0193 123.589C36.1289 126.406 39.3108 127.788 42.123 126.681L86.3354 109.264L72.2517 73.5127L60.222 78.2517L54.7326 64.3171L66.7623 59.5781L62.7143 49.3024C58.0177 37.3804 62.7385 28.0173 73.3759 23.8269C78.4757 21.8179 82.9992 20.4766 84.3398 20.1399L89.2489 32.6016L81.8718 35.5112C76.0879 37.7897 76.0555 40.979 77.6442 45.0118L81.1479 53.9058L94.9469 48.4698L98.6314 63.1137L86.6351 67.8395L100.719 103.592L124.242 94.3253C127.057 93.2163 128.442 90.0316 127.335 87.2225L94.9824 5.09543C93.8724 2.28235 90.6932 0.902564 87.878 2.01156Z" fill="black"/>
</g>
<defs>
<clipPath id="clip0">
<rect x="0.660156" y="36.3682" width="99.2244" height="99.2244" transform="rotate(-21.5014 0.660156 36.3682)" fill="white"/>
</clipPath>
</defs>
</svg>
