<svg width="1088" height="559" viewBox="0 0 1088 559" fill="none" xmlns="http://www.w3.org/2000/svg">
<path d="M546.309 168.261C608.024 132.219 686.908 147.638 730.51 204.265L733.508 208.159C756.268 237.718 790.063 256.759 827.137 260.913L895.353 268.555C945.333 274.155 976.663 325.328 958.922 372.388C946.287 405.904 956.367 443.821 983.869 466.748C1031.02 506.053 1016.12 582.247 957.646 600.906C923.535 611.791 899.921 643.122 899.006 678.929C897.721 729.205 849.428 764.815 801.019 751.184L734.945 732.578C699.035 722.466 660.558 727.381 628.343 746.194L624.1 748.672C562.384 784.715 483.501 769.296 439.898 712.668L436.901 708.775C414.141 679.216 380.346 660.175 343.272 656.021L275.055 648.378C225.075 642.779 193.746 591.605 211.486 544.546C224.121 511.03 214.042 473.113 186.54 450.186C139.393 410.881 154.286 334.687 212.763 316.027C246.873 305.143 270.488 273.812 271.403 238.005C272.688 187.729 320.98 152.118 369.39 165.75L435.464 184.356C471.373 194.468 509.851 189.553 542.066 170.739L546.309 168.261Z" fill="#F33829" stroke="black" stroke-width="7"/>
<path d="M550.319 199.014C605.699 166.671 676.486 180.507 715.612 231.322L718.31 234.825C738.847 261.499 769.343 278.681 802.798 282.429L864.18 289.306C908.926 294.319 936.974 340.134 921.092 382.265C909.669 412.563 918.782 446.839 943.642 467.565C985.853 502.755 972.519 570.973 920.165 587.68C889.33 597.519 867.982 625.841 867.155 658.211C866.005 703.221 822.77 735.103 779.43 722.898L719.975 706.157C687.572 697.032 652.851 701.467 623.781 718.444L619.963 720.674C564.583 753.016 493.796 739.18 454.67 688.365L451.972 684.862C431.435 658.189 400.939 641.006 367.484 637.258L306.102 630.381C261.356 625.368 233.308 579.554 249.19 537.423C260.613 507.124 251.5 472.848 226.64 452.123C184.428 416.933 197.763 348.714 250.117 332.008C280.952 322.168 302.3 293.846 303.127 261.477C304.277 216.466 347.512 184.585 390.852 196.789L450.306 213.531C482.71 222.656 517.431 218.221 546.501 201.244L550.319 199.014Z" fill="#FBCBE1" stroke="black" stroke-width="7"/>
</svg>
