<svg width="296" height="491" viewBox="0 0 296 491" fill="none" xmlns="http://www.w3.org/2000/svg">
<rect x="9.26456" y="47.3174" width="159.792" height="448.065" transform="rotate(-13.9313 9.26456 47.3174)" fill="#FBCBE1" stroke="black" stroke-width="14"/>
<path d="M70.1152 182.156L43.1502 73.4503L71.2584 66.478L130.236 112.842L115.983 55.3838L145.799 47.9877L172.764 156.693L146.52 163.203L85.1394 115.127L99.9316 174.76L70.1152 182.156Z" fill="black"/>
<path d="M194.055 281.808C185.596 295.556 173.032 304.497 156.364 308.631C139.696 312.766 124.423 310.785 110.545 302.688C96.7453 294.462 87.9065 282.532 84.0286 266.899L83.9516 266.589C80.0481 250.852 82.3258 236.11 90.7848 222.362C99.3473 208.589 111.963 199.635 128.631 195.501C145.299 191.366 160.533 193.412 174.333 201.638C188.21 209.735 197.088 221.6 200.966 237.233L201.043 237.543C204.946 253.28 202.617 268.035 194.055 281.808ZM127.743 277.651C134.461 282.139 141.858 283.381 149.933 281.378C158.008 279.375 163.889 274.949 167.575 268.1C171.339 261.122 172.22 253.595 170.217 245.52L170.14 245.209C168.136 237.134 163.789 230.904 157.096 226.52C150.482 222.006 143.137 220.751 135.061 222.754C126.986 224.757 121.067 229.248 117.303 236.226C113.513 243.1 112.62 250.575 114.623 258.651L114.7 258.961C116.677 266.933 121.025 273.163 127.743 277.651Z" fill="white"/>
<path d="M194.055 281.808L192.356 280.752L192.351 280.76L194.055 281.808ZM110.545 302.688L109.521 304.406L109.529 304.41L109.537 304.415L110.545 302.688ZM90.7848 222.362L89.0862 221.306L89.0814 221.314L90.7848 222.362ZM174.333 201.638L173.309 203.356L173.317 203.361L173.325 203.365L174.333 201.638ZM167.575 268.1L165.815 267.15L165.814 267.152L167.575 268.1ZM157.096 226.52L155.969 228.172L155.984 228.182L156 228.193L157.096 226.52ZM117.303 236.226L119.054 237.191L119.058 237.183L119.063 237.175L117.303 236.226ZM192.351 280.76C184.186 294.031 172.078 302.673 155.882 306.69L156.845 310.572C173.986 306.321 187.006 297.08 195.758 282.856L192.351 280.76ZM155.882 306.69C139.681 310.709 124.948 308.776 111.553 300.96L109.537 304.415C123.898 312.794 139.71 314.823 156.845 310.572L155.882 306.69ZM111.569 300.97C98.2291 293.018 89.7195 281.534 85.9698 266.418L82.0875 267.381C86.0934 283.53 95.2615 295.905 109.521 304.406L111.569 300.97ZM85.9698 266.418L85.8928 266.107L82.0104 267.07L82.0875 267.381L85.9698 266.418ZM85.8928 266.107C82.1179 250.889 84.312 236.699 92.4882 223.411L89.0814 221.314C80.3397 235.522 77.9783 250.815 82.0104 267.07L85.8928 266.107ZM92.4833 223.418C100.753 210.115 112.917 201.459 129.112 197.442L128.149 193.559C111.009 197.811 97.9411 207.063 89.0863 221.307L92.4833 223.418ZM129.112 197.442C145.308 193.424 159.995 195.419 173.309 203.356L175.357 199.92C161.071 191.404 145.29 189.307 128.149 193.559L129.112 197.442ZM173.325 203.365C186.735 211.189 195.277 222.604 199.025 237.714L202.907 236.751C198.9 220.596 189.686 208.28 175.341 199.91L173.325 203.365ZM199.025 237.714L199.102 238.025L202.984 237.062L202.907 236.751L199.025 237.714ZM199.102 238.025C202.875 253.237 200.633 267.437 192.356 280.752L195.753 282.864C204.601 268.632 207.018 253.323 202.984 237.062L199.102 238.025ZM126.632 279.314C133.834 284.125 141.812 285.453 150.415 283.319L149.452 279.437C141.904 281.309 135.088 280.152 128.854 275.988L126.632 279.314ZM150.415 283.319C158.995 281.191 165.363 276.431 169.336 269.048L165.814 267.152C162.416 273.466 157.022 277.559 149.452 279.437L150.415 283.319ZM169.336 269.049C173.348 261.61 174.274 253.57 172.158 245.038L168.275 246.001C170.165 253.62 169.33 260.633 165.815 267.15L169.336 269.049ZM172.158 245.038L172.081 244.728L168.198 245.691L168.275 246.001L172.158 245.038ZM172.081 244.728C169.962 236.184 165.325 229.519 158.192 224.847L156 228.193C162.253 232.289 166.311 238.083 168.198 245.691L172.081 244.728ZM158.224 224.868C151.118 220.019 143.184 218.679 134.58 220.813L135.543 224.695C143.09 222.823 149.845 223.993 155.969 228.172L158.224 224.868ZM134.58 220.813C125.988 222.944 119.588 227.775 115.542 235.276L119.063 237.175C122.545 230.72 127.984 226.57 135.543 224.695L134.58 220.813ZM115.551 235.26C111.503 242.604 110.565 250.6 112.682 259.132L116.564 258.169C114.674 250.551 115.523 243.597 119.054 237.191L115.551 235.26ZM112.682 259.132L112.759 259.443L116.641 258.48L116.564 258.169L112.682 259.132ZM112.759 259.443C114.854 267.889 119.492 274.544 126.632 279.314L128.854 275.988C122.558 271.782 118.501 265.977 116.641 258.48L112.759 259.443Z" fill="black"/>
<path d="M173.694 409.397L149.624 351.571L146.349 338.371L179.893 330.051L183.167 343.251L189.068 405.583L173.694 409.397ZM174.867 446.692L168.319 420.292L198.911 412.703L205.46 439.103L174.867 446.692Z" fill="black"/>
</svg>
