<svg width="365" height="206" viewBox="0 0 365 206" fill="none" xmlns="http://www.w3.org/2000/svg">
<rect x="4.41156" y="110.594" width="343" height="95" rx="47.5" transform="rotate(-18.0333 4.41156 110.594)" fill="#FFD524" stroke="black" stroke-width="7"/>
<rect x="124.707" y="92.4629" width="103" height="55" rx="11.5" transform="rotate(-18.0333 124.707 92.4629)" fill="#006561" stroke="black" stroke-width="3"/>
<circle cx="61.9741" cy="109.732" r="3.5" transform="rotate(-18.0333 61.9741 109.732)" fill="#F33829"/>
<circle cx="73.1186" cy="143.964" r="3.5" transform="rotate(-18.0333 73.1186 143.964)" fill="#F33829"/>
<circle cx="65.6889" cy="121.143" r="3.5" transform="rotate(-18.0333 65.6889 121.143)" fill="#F33829"/>
<circle cx="76.8334" cy="155.374" r="3.5" transform="rotate(-18.0333 76.8334 155.374)" fill="#F33829"/>
<circle cx="69.4037" cy="132.553" r="3.5" transform="rotate(-18.0333 69.4037 132.553)" fill="#F33829"/>
<circle cx="80.5483" cy="166.785" r="3.5" transform="rotate(-18.0333 80.5483 166.785)" fill="#F33829"/>
<circle cx="256.904" cy="46.2707" r="3.5" transform="rotate(-18.0333 256.904 46.2707)" fill="#F33829"/>
<circle cx="268.048" cy="80.5024" r="3.5" transform="rotate(-18.0333 268.048 80.5024)" fill="#F33829"/>
<circle cx="260.619" cy="57.6813" r="3.5" transform="rotate(-18.0333 260.619 57.6813)" fill="#F33829"/>
<circle cx="271.763" cy="91.9128" r="3.5" transform="rotate(-18.0333 271.763 91.9128)" fill="#F33829"/>
<circle cx="264.333" cy="69.0917" r="3.5" transform="rotate(-18.0333 264.333 69.0917)" fill="#F33829"/>
<circle cx="275.478" cy="103.323" r="3.5" transform="rotate(-18.0333 275.478 103.323)" fill="#F33829"/>
<circle cx="88.5952" cy="101.064" r="3.5" transform="rotate(-18.0333 88.5952 101.064)" fill="#F33829"/>
<circle cx="99.7397" cy="135.296" r="3.5" transform="rotate(-18.0333 99.7397 135.296)" fill="#F33829"/>
<circle cx="92.31" cy="112.475" r="3.5" transform="rotate(-18.0333 92.31 112.475)" fill="#F33829"/>
<circle cx="103.455" cy="146.706" r="3.5" transform="rotate(-18.0333 103.455 146.706)" fill="#F33829"/>
<circle cx="96.0248" cy="123.885" r="3.5" transform="rotate(-18.0333 96.0248 123.885)" fill="#F33829"/>
<circle cx="107.169" cy="158.117" r="3.5" transform="rotate(-18.0333 107.169 158.117)" fill="#F33829"/>
<circle cx="283.529" cy="37.6027" r="3.5" transform="rotate(-18.0333 283.529 37.6027)" fill="#F33829"/>
<circle cx="294.673" cy="71.8344" r="3.5" transform="rotate(-18.0333 294.673 71.8344)" fill="#F33829"/>
<circle cx="287.244" cy="49.0134" r="3.5" transform="rotate(-18.0333 287.244 49.0134)" fill="#F33829"/>
<circle cx="298.388" cy="83.2448" r="3.5" transform="rotate(-18.0333 298.388 83.2448)" fill="#F33829"/>
<circle cx="290.958" cy="60.4238" r="3.5" transform="rotate(-18.0333 290.958 60.4238)" fill="#F33829"/>
<circle cx="302.103" cy="94.6555" r="3.5" transform="rotate(-18.0333 302.103 94.6555)" fill="#F33829"/>
<circle cx="83.31" cy="133.283" r="3.5" transform="rotate(-18.0333 83.31 133.283)" fill="#F33829"/>
<circle cx="75.8803" cy="110.462" r="3.5" transform="rotate(-18.0333 75.8803 110.462)" fill="#F33829"/>
<circle cx="87.0248" cy="144.694" r="3.5" transform="rotate(-18.0333 87.0248 144.694)" fill="#F33829"/>
<circle cx="79.5952" cy="121.873" r="3.5" transform="rotate(-18.0333 79.5952 121.873)" fill="#F33829"/>
<circle cx="90.7397" cy="156.104" r="3.5" transform="rotate(-18.0333 90.7397 156.104)" fill="#F33829"/>
<circle cx="278.24" cy="69.8217" r="3.5" transform="rotate(-18.0333 278.24 69.8217)" fill="#F33829"/>
<circle cx="270.81" cy="47.0007" r="3.5" transform="rotate(-18.0333 270.81 47.0007)" fill="#F33829"/>
<circle cx="281.955" cy="81.2324" r="3.5" transform="rotate(-18.0333 281.955 81.2324)" fill="#F33829"/>
<circle cx="274.525" cy="58.4113" r="3.5" transform="rotate(-18.0333 274.525 58.4113)" fill="#F33829"/>
<circle cx="285.669" cy="92.6428" r="3.5" transform="rotate(-18.0333 285.669 92.6428)" fill="#F33829"/>
<circle cx="59.2084" cy="143.234" r="3.5" transform="rotate(-18.0333 59.2084 143.234)" fill="#F33829"/>
<circle cx="51.7787" cy="120.413" r="3.5" transform="rotate(-18.0333 51.7787 120.413)" fill="#F33829"/>
<circle cx="62.9233" cy="154.644" r="3.5" transform="rotate(-18.0333 62.9233 154.644)" fill="#F33829"/>
<circle cx="55.4936" cy="131.823" r="3.5" transform="rotate(-18.0333 55.4936 131.823)" fill="#F33829"/>
<circle cx="66.6381" cy="166.055" r="3.5" transform="rotate(-18.0333 66.6381 166.055)" fill="#F33829"/>
<circle cx="254.138" cy="79.7722" r="3.5" transform="rotate(-18.0333 254.138 79.7722)" fill="#F33829"/>
<circle cx="246.708" cy="56.9511" r="3.5" transform="rotate(-18.0333 246.708 56.9511)" fill="#F33829"/>
<circle cx="257.853" cy="91.1828" r="3.5" transform="rotate(-18.0333 257.853 91.1828)" fill="#F33829"/>
<circle cx="250.423" cy="68.3618" r="3.5" transform="rotate(-18.0333 250.423 68.3618)" fill="#F33829"/>
<circle cx="261.568" cy="102.593" r="3.5" transform="rotate(-18.0333 261.568 102.593)" fill="#F33829"/>
<circle cx="109.935" cy="124.615" r="3.5" transform="rotate(-18.0333 109.935 124.615)" fill="#F33829"/>
<circle cx="102.505" cy="101.794" r="3.5" transform="rotate(-18.0333 102.505 101.794)" fill="#F33829"/>
<circle cx="113.65" cy="136.026" r="3.5" transform="rotate(-18.0333 113.65 136.026)" fill="#F33829"/>
<circle cx="106.22" cy="113.205" r="3.5" transform="rotate(-18.0333 106.22 113.205)" fill="#F33829"/>
<circle cx="117.365" cy="147.436" r="3.5" transform="rotate(-18.0333 117.365 147.436)" fill="#F33829"/>
<circle cx="304.865" cy="61.1538" r="3.5" transform="rotate(-18.0333 304.865 61.1538)" fill="#F33829"/>
<circle cx="297.435" cy="38.3327" r="3.5" transform="rotate(-18.0333 297.435 38.3327)" fill="#F33829"/>
<circle cx="308.58" cy="72.5644" r="3.5" transform="rotate(-18.0333 308.58 72.5644)" fill="#F33829"/>
<circle cx="301.15" cy="49.7434" r="3.5" transform="rotate(-18.0333 301.15 49.7434)" fill="#F33829"/>
<circle cx="312.294" cy="83.9748" r="3.5" transform="rotate(-18.0333 312.294 83.9748)" fill="#F33829"/>
<path d="M162.584 117.466L158.682 118.736L160.025 112.241L150.469 103.742L154.44 102.449L160.948 108.407L162.359 99.8712L166.261 98.6008L162.584 117.466ZM173.621 113.872L168.421 97.8977L181.817 93.5365L187.017 109.511L183.503 110.655L179.342 97.8756L172.975 99.9485L177.136 112.728L173.621 113.872ZM198.423 106.101C196.08 106.864 193.868 106.709 191.785 105.637C189.718 104.56 188.309 102.865 187.556 100.552L187.541 100.507C186.788 98.1943 186.935 95.9842 187.982 93.8766C189.029 91.7689 190.762 90.3213 193.181 89.5338C195.737 88.7017 198.104 88.8397 200.282 89.9479L198.885 93.2548C197.14 92.4937 195.582 92.336 194.213 92.7818C192.89 93.2127 191.945 94.0587 191.38 95.3197C190.809 96.5654 190.749 97.8806 191.2 99.265L191.215 99.3107C191.671 100.71 192.491 101.756 193.675 102.447C194.874 103.134 196.143 103.259 197.482 102.823C198.334 102.546 199.023 102.153 199.547 101.646C200.087 101.134 200.595 100.447 201.072 99.5847L204.044 101.116C203.474 102.362 202.756 103.386 201.89 104.19C201.039 104.988 199.884 105.625 198.423 106.101ZM206.75 97.0798L202.394 87.3421L202.245 86.8857L206.307 85.5632L206.456 86.0197L208.667 96.4557L206.75 97.0798ZM207.629 102.801L206.44 99.1496L210.137 97.946L211.326 101.597L207.629 102.801Z" fill="white"/>
<path d="M137.488 96.1892L211.657 72.0428" stroke="white" stroke-width="2"/>
<path d="M149.406 132.798L223.575 108.652" stroke="white" stroke-width="2"/>
</svg>
