<svg width="298" height="240" viewBox="0 0 298 240" fill="none" xmlns="http://www.w3.org/2000/svg">
<rect x="51.8219" y="4.35883" width="252" height="165" transform="rotate(16.7169 51.8219 4.35883)" fill="#006561" stroke="black" stroke-width="7"/>
<circle cx="126.065" cy="87.6597" r="20.2417" transform="rotate(16.7169 126.065 87.6597)" fill="white" stroke="black" stroke-width="7"/>
<path d="M136.58 70.1602C130.066 75.5906 118.67 90.7726 125.198 108.057C138.67 105.719 159.809 94.8649 136.58 70.1602Z" fill="black" stroke="black"/>
<circle cx="187.386" cy="106.077" r="20.2417" transform="rotate(16.7169 187.386 106.077)" fill="white" stroke="black" stroke-width="7"/>
<path d="M197.9 88.5772C191.386 94.0076 179.991 109.19 186.518 126.474C199.991 124.136 221.129 113.282 197.9 88.5772Z" fill="black" stroke="black"/>
<path d="M156.423 118.707C144.33 113.543 119.461 105.231 116.731 113.3C113.319 123.386 142.165 130.517 160.377 134.837" stroke="black" stroke-width="7"/>
<path d="M121.531 37.824C117.31 34.5744 109.853 40.0299 106.652 43.1638L107.969 50.9414C128.184 58.8176 126.808 41.886 121.531 37.824Z" fill="#FFD524" stroke="black" stroke-width="5"/>
<path d="M87.4257 38.6411C91.8787 35.7168 98.9061 41.7156 101.863 45.0804L99.9673 52.7376C79.2192 59.0776 81.8594 42.2965 87.4257 38.6411Z" fill="#FFD524" stroke="black" stroke-width="5"/>
<circle cx="103.351" cy="47.2597" r="5.3543" transform="rotate(2.14774 103.351 47.2597)" fill="#FFD524" stroke="black" stroke-width="5"/>
</svg>
