<svg width="359" height="359" viewBox="0 0 359 359" fill="none" xmlns="http://www.w3.org/2000/svg">
<rect x="164.703" y="4.93173" width="246.671" height="247.646" transform="rotate(39.8827 164.703 4.93173)" fill="#FBCBE1" stroke="black" stroke-width="7"/>
<circle cx="150.567" cy="154.217" r="25.0873" transform="rotate(39.8827 150.567 154.217)" fill="white"/>
<circle cx="194.418" cy="190.859" r="25.0873" transform="rotate(39.8827 194.418 190.859)" fill="white"/>
<circle cx="147.783" cy="167.328" r="6.27183" transform="rotate(39.8827 147.783 167.328)" fill="black"/>
<path d="M93 178.782C104.167 174.949 126 174.782 124 204.782C123 210.949 124.6 223.282 139 223.282C157 223.282 168 214.282 176 229.782C184 245.282 164.5 257.282 183 262.282" stroke="black" stroke-width="7"/>
<circle cx="192.791" cy="205.845" r="6.27183" transform="rotate(39.8827 192.791 205.845)" fill="black"/>
<path d="M246.57 161.089L218.053 168.955L218.333 208.676L246.967 217.534L232.206 199.519L259.236 178.422L227.878 178.642L246.57 161.089Z" fill="black" stroke="black"/>
</svg>
