<svg width="78" height="78" viewBox="0 0 78 78" fill="none" xmlns="http://www.w3.org/2000/svg">
<path d="M64.2853 54.5489C61.0331 54.5489 58.1232 55.7043 55.8981 57.5229L25.3876 41.476C25.6015 40.5774 25.7727 39.7002 25.7727 38.7588C25.7727 37.8173 25.6015 36.9401 25.3876 36.0415L55.5557 20.1444C57.8665 22.07 60.9047 23.2682 64.2853 23.2682C71.3887 23.2682 77.1228 18.0904 77.1228 11.6716C77.1228 5.25284 71.3887 0.0964355 64.2853 0.0964355C57.1818 0.0964355 51.4477 5.27423 51.4477 11.693C51.4477 12.613 51.6189 13.5116 51.8329 14.4103L21.6647 30.3074C19.3539 28.3604 16.3157 27.1622 12.9352 27.1622C5.83175 27.1622 0.0976562 32.34 0.0976562 38.7588C0.0976562 45.1775 5.83175 50.3553 12.9352 50.3553C16.3157 50.3553 19.3539 49.1572 21.6647 47.2315L52.1324 63.3212C51.9184 64.1343 51.7901 64.9901 51.7901 65.8245C51.7901 72.0507 57.3958 77.1216 64.2853 77.1216C71.1747 77.1216 76.7804 72.0507 76.7804 65.8245C76.7804 59.5983 71.1747 54.5489 64.2853 54.5489Z" fill="white"/>
</svg>
