<svg width="425" height="416" viewBox="0 0 425 416" fill="none" xmlns="http://www.w3.org/2000/svg">
<path d="M59.4361 216.517L274.755 75.3198L303.66 331.179L59.4361 216.517Z" fill="#89D5F6" stroke="black" stroke-width="7"/>
<path d="M226.818 193.032C219.077 187.557 200.587 179.723 188.548 192.188C176.509 204.653 207.128 216.93 223.942 221.51" stroke="black" stroke-width="7"/>
<path d="M140.875 202.829C140.259 208.064 141.757 218.599 152.679 218.866C166.331 219.2 182.136 216.125 185.82 229.455C189.505 242.784 203.157 243.118 210.713 241.142C218.27 239.166 227.589 245.198 231.884 256.052C235.319 264.735 250.188 260.595 257.193 257.44" stroke="black" stroke-width="7"/>
<circle cx="254.583" cy="197.112" r="14" transform="rotate(25.1497 254.583 197.112)" fill="white" stroke="black" stroke-width="7"/>
<circle cx="255.228" cy="205.149" r="3.5" transform="rotate(25.1497 255.228 205.149)" fill="black"/>
<circle cx="187.599" cy="165.663" r="14" transform="rotate(25.1497 187.599 165.663)" fill="white" stroke="black" stroke-width="7"/>
<circle cx="188.243" cy="173.7" r="3.5" transform="rotate(25.1497 188.243 173.7)" fill="black"/>
</svg>
