<svg width="259" height="259" viewBox="0 0 259 259" fill="none" xmlns="http://www.w3.org/2000/svg">
<circle cx="129.479" cy="129.479" r="102.5" transform="rotate(-14.738 129.479 129.479)" fill="#006561" stroke="black" stroke-width="7"/>
<path d="M112.966 136.924C108.29 151.252 108.31 176.615 145.793 163.446C151.426 161.275 159.578 152.168 147.119 133.11" stroke="black" stroke-width="7"/>
<path d="M85.1951 157.672C86.8655 164.022 89.7703 169.981 93.7436 175.209C97.717 180.436 102.681 184.83 108.352 188.139C114.024 191.448 120.291 193.608 126.797 194.494C133.303 195.381 139.92 194.978 146.27 193.307C152.62 191.637 158.579 188.732 163.806 184.759C169.034 180.786 173.428 175.821 176.737 170.15C180.046 164.479 182.205 158.211 183.092 151.705C183.979 145.199 183.575 138.583 181.905 132.232" stroke="black" stroke-width="7"/>
</svg>
