<svg width="344" height="342" viewBox="0 0 344 342" fill="none" xmlns="http://www.w3.org/2000/svg">
<circle cx="66.9559" cy="143.041" r="47.5" transform="rotate(-9.09536 66.9559 143.041)" fill="#FFD524" stroke="black" stroke-width="7"/>
<circle cx="67.0109" cy="143.011" r="26.1907" transform="rotate(-9.09536 67.0109 143.011)" fill="#FBCBE1"/>
<circle cx="67.0109" cy="143.011" r="26.1907" transform="rotate(-9.09536 67.0109 143.011)" fill="#FBCBE1"/>
<circle cx="67.0109" cy="143.011" r="26.1907" transform="rotate(-9.09536 67.0109 143.011)" stroke="black" stroke-width="7"/>
<path d="M291.869 51.841C295.968 77.44 278.332 101.607 252.396 105.759C226.461 109.911 202.162 92.4574 198.064 66.8584C193.966 41.2594 211.601 17.0927 237.537 12.9406C263.473 8.78855 287.771 26.242 291.869 51.841Z" fill="#FFD524" stroke="black" stroke-width="7"/>
<circle cx="245.011" cy="58.0109" r="26.1907" transform="rotate(-9.09536 245.011 58.0109)" fill="#FBCBE1"/>
<circle cx="245.011" cy="58.0109" r="26.1907" transform="rotate(-9.09536 245.011 58.0109)" fill="#FBCBE1"/>
<circle cx="245.011" cy="58.0109" r="26.1907" transform="rotate(-9.09536 245.011 58.0109)" stroke="black" stroke-width="7"/>
<circle cx="199.002" cy="189.755" r="122.5" transform="rotate(-9.09536 199.002 189.755)" fill="#FFD524" stroke="black" stroke-width="7"/>
<path d="M206.411 239.206L182.809 209.564L219.58 203.677L206.411 239.206Z" fill="black"/>
<path d="M205.964 232.188C207.494 249.834 217.698 278.3 246.278 250.992" stroke="black" stroke-width="7"/>
<path d="M204.649 232.399C208.705 249.64 207.897 279.869 172.22 262.848" stroke="black" stroke-width="7"/>
</svg>
