<svg width="331" height="331" viewBox="0 0 331 331" fill="none" xmlns="http://www.w3.org/2000/svg">
<path d="M198.315 83.0337L265.68 46.1098L241.015 118.864L239.735 122.64L243.646 123.42L318.985 138.436L253.325 178.315L249.917 180.385L252.412 183.496L300.473 243.426L224.541 231.77L220.599 231.165L220.511 235.151L218.805 311.954L168.131 254.216L165.5 251.219L162.869 254.216L112.195 311.954L110.489 235.151L110.401 231.165L106.459 231.77L30.5275 243.426L78.5883 183.496L81.0832 180.385L77.6747 178.315L12.0149 138.436L87.3542 123.42L91.2651 122.64L89.9847 118.864L65.3197 46.1098L132.685 83.0337L136.182 84.9504L137.629 81.2343L165.5 9.64716L193.371 81.2343L194.818 84.9504L198.315 83.0337Z" fill="#FFD524" stroke="black" stroke-width="7"/>
<path d="M150.97 180.925C146.294 195.252 146.314 220.615 183.797 207.446C189.43 205.275 197.582 196.168 185.123 177.111" stroke="black" stroke-width="7"/>
<path d="M123.195 201.673C124.866 208.023 127.77 213.982 131.744 219.209C135.717 224.437 140.681 228.83 146.352 232.139C152.024 235.448 158.291 237.608 164.797 238.495C171.303 239.381 177.92 238.978 184.27 237.308C190.62 235.637 196.579 232.732 201.806 228.759C207.034 224.786 211.428 219.822 214.737 214.15C218.046 208.479 220.205 202.212 221.092 195.706C221.979 189.2 221.575 182.583 219.905 176.233" stroke="black" stroke-width="7"/>
<circle cx="127.477" cy="145.226" r="28" transform="rotate(-14.738 127.477 145.226)" fill="white" stroke="black" stroke-width="7"/>
<circle cx="124.983" cy="139.678" r="6.5" transform="rotate(-14.738 124.983 139.678)" fill="black"/>
<circle cx="189.169" cy="132.1" r="28" transform="rotate(-14.738 189.169 132.1)" fill="white" stroke="black" stroke-width="7"/>
<circle cx="186.674" cy="126.552" r="6.5" transform="rotate(-14.738 186.674 126.552)" fill="black"/>
<path d="M245.5 251C234.7 251 218 232.667 211 223.5C217.8 216.7 220.167 208.667 220.5 205.5C288.5 220 259 251 245.5 251Z" fill="#F33829" stroke="black" stroke-width="7"/>
</svg>
