<svg width="513" height="368" viewBox="0 0 513 368" fill="none" xmlns="http://www.w3.org/2000/svg">
<path d="M231.758 46.8115L275.428 82.7978L277.419 84.4384L279.576 83.0221L338.469 44.3399L346.659 90.5436L347.32 94.2699L350.983 93.3209L424.515 74.2736L398.061 119.484L395.152 124.455L400.904 124.747L471.49 128.331L416.991 163.949L411.674 167.423L417.451 170.062L470.781 194.422L398.622 212.971L393.982 214.164L396.529 218.222L422.001 258.8L347.477 254.868L344.463 254.709L343.862 257.666L333.872 306.841L275.724 280.083L273.506 279.062L271.782 280.792L226.594 326.125L200.103 283.508L198.51 280.945L195.74 282.143L127.251 311.783L136.997 264.874L137.971 260.183L133.206 260.681L59.1043 268.423L100.612 227.016L105.108 222.53L98.9147 221.125L35.4228 206.716L100.342 178.775L105.632 176.498L101.174 172.851L60.6309 139.684L136.194 131.93L139.958 131.544L139.28 127.821L130.866 81.6575L199.544 97.4082L202.058 97.9849L203.353 95.7536L231.758 46.8115Z" fill="#FFD524" stroke="black" stroke-width="7"/>
<path d="M234.974 61.8685L272.352 92.5664L276.327 95.8314L280.631 93.0124L330.918 60.0691L337.552 97.4958L338.873 104.946L346.198 103.051L406.151 87.5371L385.994 121.856L380.144 131.815L391.68 132.392L446.074 135.114L404.826 162.001L394.15 168.96L405.75 174.237L445.875 192.49L388.754 207.159L379.459 209.545L384.57 217.667L404.492 249.322L342.09 246.076L336.074 245.763L334.868 251.665L326.453 292.844L276.433 269.921L272.008 267.893L268.566 271.335L229.661 310.243L207.431 274.572L204.245 269.46L198.715 271.848L141.35 296.623L149 260.012L150.963 250.619L141.419 251.618L82.7648 257.761L114.021 226.677L123.058 217.69L110.626 214.885L62.597 204.046L112.638 182.551L123.251 177.993L114.299 170.694L83.5116 145.593L141.857 139.781L149.41 139.028L148.049 131.56L141.199 93.9736L203.139 106.989L208.083 108.028L210.626 103.662L234.974 61.8685Z" fill="#FFD524" stroke="#F33829" stroke-width="14"/>
<path d="M237.805 77.6278L270.481 104.515L274.46 107.789L278.769 104.962L322.676 76.1559L328.41 108.502L329.731 115.953L337.057 114.056L388.815 100.656L371.737 129.793L365.906 139.743L377.424 140.324L423.689 142.658L388.793 165.438L378.141 172.391L389.716 177.669L423.624 193.13L374.69 205.703L365.404 208.089L370.506 216.207L387.533 243.302L333.29 240.457L327.267 240.142L326.064 246.051L318.755 281.931L274.981 261.823L270.549 259.788L267.104 263.239L233.073 297.333L213.726 266.244L210.54 261.124L205.005 263.517L155.148 285.074L161.673 253.746L163.628 244.359L154.092 245.357L103.843 250.612L130.244 224.31L139.256 215.332L126.85 212.524L86.2051 203.322L128.761 185.022L139.356 180.466L130.424 173.17L104.328 151.853L154.597 146.853L162.152 146.101L160.79 138.632L154.866 106.122L209.043 117.543L213.995 118.587L216.538 114.211L237.805 77.6278Z" fill="#006561" stroke="#FBCBE1" stroke-width="14"/>
</svg>
