<svg width="214" height="516" viewBox="0 0 214 516" fill="none" xmlns="http://www.w3.org/2000/svg">
<path d="M136.225 -114.808C162.018 -105.348 210.048 -77.5091 195.835 -41.8256C178.068 2.77867 115.564 -42.1774 109.797 8.94056C104.031 60.0585 178.283 40.3582 170.415 77.1992C162.547 114.04 86.1324 90.8066 87.0002 115.685C87.8681 140.564 150.56 146.051 149.636 174.497C148.712 202.944 72.0712 185.589 68.8433 200.703C65.6155 215.817 135.11 242.512 127.041 280.297C118.971 318.083 54.1161 269.662 46.8534 303.669C39.5906 337.676 107.659 332.458 108.077 369.094C108.494 405.729 19.473 378.815 25.4686 403.801C31.4643 428.787 85.6709 435.425 87.0956 467.336C88.2353 492.866 33.4398 496.703 5.89958 495.431" stroke="#F33829" stroke-width="8"/>
</svg>
