<svg width="153" height="153" viewBox="0 0 153 153" fill="none" xmlns="http://www.w3.org/2000/svg">
<path d="M120.887 0.490967L32.1751 0.490967C14.6861 0.490967 0.492187 14.6849 0.492187 32.1739L0.492187 120.886C0.492187 138.375 14.6861 152.569 32.1751 152.569H120.887C138.376 152.569 152.57 138.375 152.57 120.886V32.1739C152.57 14.6849 138.376 0.490967 120.887 0.490967ZM122.45 108.171H108.932C101.286 108.171 100.019 103.819 93.7245 97.5252C88.0215 91.8222 84.8955 96.2156 85.0222 104.284C85.0645 106.439 84.0083 108.171 81.4315 108.171C73.4051 108.171 61.9148 109.311 50.2555 96.7225C38.3427 83.8381 25.7963 57.9849 25.7963 55.4503C25.7963 53.9295 27.0213 53.2536 29.1335 53.2536H42.9051C46.538 53.2536 46.8337 55.0701 47.8476 57.3512C52.072 66.9828 62.2105 86.3305 64.8719 75.5161C66.4349 69.3063 67.0685 54.9433 60.4362 53.7183C56.6765 53.0424 63.3088 48.9869 72.8982 48.9869C75.3061 48.9869 77.883 49.2404 80.5444 49.8741C85.4024 51.0146 85.4447 53.1691 85.3602 56.3796C85.1067 68.4191 83.6704 76.5722 86.8387 78.5999C89.8802 80.5854 97.8644 67.701 102.047 57.8159C103.187 55.0701 103.441 53.2536 106.693 53.2536H123.506C132.335 53.2536 122.366 65.9267 114.762 75.8118C108.637 83.7537 108.974 83.9226 116.071 90.5549C121.141 95.2862 127.182 101.707 127.182 105.34C127.224 107.072 125.872 108.171 122.45 108.171Z" fill="#F33829"/>
</svg>
