<svg width="281" height="491" viewBox="0 0 281 491" fill="none" xmlns="http://www.w3.org/2000/svg">
<rect x="9.26456" y="47.3174" width="159.792" height="448.065" transform="rotate(-13.9313 9.26456 47.3174)" fill="#FBCBE1" stroke="black" stroke-width="14"/>
<path d="M107.64 174.336L97.5472 133.649L39.2114 75.9157L73.5313 67.4025L105.717 101.455L118.411 56.2698L152.11 47.9106L127.559 125.71L137.767 166.863L107.64 174.336Z" fill="black"/>
<path d="M116.006 320.055L89.0409 211.35L176.471 189.662L182.789 215.13L125.175 229.422L129.297 246.038L181.475 233.095L187.369 256.855L135.19 269.798L139.466 287.036L197.857 272.552L204.213 298.175L116.006 320.055Z" fill="white"/>
<path d="M116.006 320.055L114.065 320.537L114.546 322.478L116.487 321.996L116.006 320.055ZM89.0409 211.35L88.5593 209.409L86.6182 209.89L87.0997 211.831L89.0409 211.35ZM176.471 189.662L178.412 189.181L177.931 187.239L175.99 187.721L176.471 189.662ZM182.789 215.13L183.27 217.072L185.211 216.59L184.73 214.649L182.789 215.13ZM125.175 229.422L124.693 227.481L122.752 227.962L123.234 229.903L125.175 229.422ZM129.297 246.038L127.355 246.52L127.837 248.461L129.778 247.979L129.297 246.038ZM181.475 233.095L183.416 232.613L182.935 230.672L180.994 231.154L181.475 233.095ZM187.369 256.855L187.85 258.796L189.792 258.315L189.31 256.373L187.369 256.855ZM135.19 269.798L134.709 267.857L132.768 268.338L133.249 270.28L135.19 269.798ZM139.466 287.036L137.525 287.517L138.007 289.458L139.948 288.977L139.466 287.036ZM197.857 272.552L199.798 272.07L199.316 270.129L197.375 270.61L197.857 272.552ZM204.213 298.175L204.694 300.116L206.635 299.635L206.154 297.694L204.213 298.175ZM117.947 319.574L90.982 210.868L87.0997 211.831L114.065 320.537L117.947 319.574ZM89.5224 213.291L176.953 191.603L175.99 187.721L88.5593 209.409L89.5224 213.291ZM174.53 190.144L180.847 215.612L184.73 214.649L178.412 189.181L174.53 190.144ZM182.307 213.189L124.693 227.481L125.656 231.363L183.27 217.072L182.307 213.189ZM123.234 229.903L127.355 246.52L131.238 245.557L127.116 228.94L123.234 229.903ZM129.778 247.979L181.957 235.036L180.994 231.154L128.815 244.097L129.778 247.979ZM179.534 233.577L185.428 257.336L189.31 256.373L183.416 232.613L179.534 233.577ZM186.887 254.914L134.709 267.857L135.672 271.739L187.85 258.796L186.887 254.914ZM133.249 270.28L137.525 287.517L141.407 286.554L137.131 269.317L133.249 270.28ZM139.948 288.977L198.338 274.493L197.375 270.61L138.985 285.095L139.948 288.977ZM195.915 273.033L202.271 298.657L206.154 297.694L199.798 272.07L195.915 273.033ZM203.731 296.234L115.524 318.114L116.487 321.996L204.694 300.116L203.731 296.234Z" fill="black"/>
<path d="M194.725 446.039C174.536 451.047 156.068 449.254 139.32 440.66L151.122 416.467C164.357 422.415 177.186 423.849 189.61 420.767C197.996 418.687 201.572 415.162 200.339 410.193L200.262 409.882C199.672 407.501 197.967 405.945 195.149 405.216C192.304 404.383 186.976 403.946 179.163 403.906C172.152 403.997 166.344 403.844 161.74 403.447C157.136 403.051 152.455 402.124 147.698 400.666C142.914 399.105 139.064 396.654 136.147 393.311C133.204 389.865 131.065 385.45 129.729 380.066L129.652 379.756C127.084 369.403 128.783 360.08 134.748 351.786C140.817 343.467 150.27 337.715 163.108 334.531C180.915 330.114 197.017 331.23 211.415 337.879L201.629 362.891C190.125 358.161 179.094 357.106 168.534 359.726C161.287 361.523 158.241 364.752 159.396 369.41L159.474 369.721C160.09 372.206 161.885 373.903 164.858 374.814C167.806 375.622 173.199 375.877 181.039 375.581C195.346 375.219 206.441 376.753 214.326 380.182C222.288 383.483 227.45 389.895 229.813 399.42L229.89 399.73C232.612 410.704 230.771 420.338 224.365 428.63C217.96 436.923 208.08 442.726 194.725 446.039Z" fill="black"/>
</svg>
